{
  "accessors": [
    {
      "bufferView": 2,
      "componentType": 5126,
      "count": 65532,
      "max": [
        3.7975454330444336,
        3.643400192260742,
        -4.17005729675293
      ],
      "min": [
        -3.6332638263702393,
        -1.894761085510254,
        -10.301248550415039
      ],
      "type": "VEC3"
    },
    {
      "bufferView": 2,
      "byteOffset": 786384,
      "componentType": 5126,
      "count": 65532,
      "max": [
        0.9986839294433594,
        0.9999706745147705,
        0.9999946355819702
      ],
      "min": [
        -0.999360203742981,
        -0.9699978828430176,
        -0.9986708760261536
      ],
      "type": "VEC3"
    },
    {
      "bufferView": 3,
      "componentType": 5126,
      "count": 65532,
      "max": [
        1.0,
        1.0,
        0.9960784316062927,
        0.0
      ],
      "min": [
        0.0117647061124444,
        0.03921568766236305,
        0.01568627543747425,
        0.0
      ],
      "type": "VEC4"
    },
    {
      "bufferView": 1,
      "componentType": 5126,
      "count": 65532,
      "max": [
        0.9957566857337952,
        0.999851405620575
      ],
      "min": [
        0.00021993510017637163,
        0.000140397809445858
      ],
      "type": "VEC2"
    },
    {
      "bufferView": 0,
      "componentType": 5125,
      "count": 372873,
      "type": "SCALAR"
    },
    {
      "bufferView": 2,
      "byteOffset": 1572768,
      "componentType": 5126,
      "count": 63536,
      "max": [
        5.746085166931152,
        3.652165174484253,
        -2.6940064430236816
      ],
      "min": [
        -3.626089334487915,
        -2.6119167804718018,
        -10.164314270019531
      ],
      "type": "VEC3"
    },
    {
      "bufferView": 2,
      "byteOffset": 2335200,
      "componentType": 5126,
      "count": 63536,
      "max": [
        0.9995624423027039,
        0.9997891187667847,
        0.9999175667762756
      ],
      "min": [
        -0.9999650120735168,
        -0.9930023550987244,
        -0.9935120344161987
      ],
      "type": "VEC3"
    },
    {
      "bufferView": 3,
      "byteOffset": 1048512,
      "componentType": 5126,
      "count": 63536,
      "max": [
        1.0,
        0.9960784316062927,
        0.9960784316062927,
        0.0
      ],
      "min": [
        0.0,
        0.0,
        0.0,
        0.0
      ],
      "type": "VEC4"
    },
    {
      "bufferView": 1,
      "byteOffset": 524256,
      "componentType": 5126,
      "count": 63536,
      "max": [
        0.9998242855072021,
        0.9968439340591431
      ],
      "min": [
        1.4832126908004284e-05,
        0.00014076032675802708
      ],
      "type": "VEC2"
    },
    {
      "bufferView": 0,
      "byteOffset": 1491492,
      "componentType": 5125,
      "count": 350757,
      "type": "SCALAR"
    }
  ],
  "asset": {
    "extras": {
      "author": "megalithphotogrammetry (https://sketchfab.com/megalithogram)",
      "license": "CC-BY-4.0 (http://creativecommons.org/licenses/by/4.0/)",
      "source": "https://sketchfab.com/3d-models/castlerigg-8e8d29e0d9bc42f6aba305645f25108e",
      "title": "Castlerigg"
    },
    "generator": "Sketchfab-12.29.0",
    "version": "2.0"
  },
  "bufferViews": [
    {
      "buffer": 0,
      "byteLength": 2894520,
      "name": "floatBufferViews",
      "target": 34963
    },
    {
      "buffer": 0,
      "byteLength": 1032544,
      "byteOffset": 2894520,
      "byteStride": 8,
      "name": "floatBufferViews",
      "target": 34962
    },
    {
      "buffer": 0,
      "byteLength": 3097632,
      "byteOffset": 3927064,
      "byteStride": 12,
      "name": "floatBufferViews",
      "target": 34962
    },
    {
      "buffer": 0,
      "byteLength": 2065088,
      "byteOffset": 7024696,
      "byteStride": 16,
      "name": "floatBufferViews",
      "target": 34962
    }
  ],
  "buffers": [
    {
      "byteLength": 9089784,
      "uri": "scene.bin"
    }
  ],
  "extensionsUsed": [
    "KHR_materials_unlit"
  ],
  "images": [
    {
      "uri": "textures/material_0_baseColor.jpeg"
    }
  ],
  "materials": [
    {
      "extensions": {
        "KHR_materials_unlit": {}
      },
      "name": "material_0",
      "pbrMetallicRoughness": {
        "baseColorTexture": {
          "index": 0
        },
        "metallicFactor": 0.0
      }
    }
  ],
  "meshes": [
    {
      "name": "Object_0",
      "primitives": [
        {
          "attributes": {
            "COLOR_0": 2,
            "NORMAL": 1,
            "POSITION": 0,
            "TEXCOORD_0": 3
          },
          "indices": 4,
          "material": 0,
          "mode": 4
        }
      ]
    },
    {
      "name": "Object_1",
      "primitives": [
        {
          "attributes": {
            "COLOR_0": 7,
            "NORMAL": 6,
            "POSITION": 5,
            "TEXCOORD_0": 8
          },
          "indices": 9,
          "material": 0,
          "mode": 4
        }
      ]
    }
  ],
  "nodes": [
    {
      "children": [
        1
      ],
      "matrix": [
        0.9808520674705505,
        -0.19316299259662628,
        0.02484607882797714,
        0.0,
        -0.11061917990446091,
        -0.6575646996498107,
        -0.7452328801155091,
        0.0,
        0.16028931736946106,
        0.7282147407531739,
        -0.6663411855697631,
        0.0,
        0.6556267738342285,
        4.618059158325195,
        -1.3350679874420155,
        1.0
      ],
      "name": "Sketchfab_model"
    },
    {
      "children": [
        2
      ],
      "name": "root"
    },
    {
      "children": [
        3
      ],
      "matrix": [
        1.0,
        0.0,
        0.0,
        0.0,
        0.0,
        2.220446049250313e-16,
        1.0,
        0.0,
        0.0,
        -1.0,
        2.220446049250313e-16,
        0.0,
        0.0,
        0.0,
        0.0,
        1.0
      ],
      "name": "GLTF_SceneRootNode"
    },
    {
      "children": [
        4,
        5
      ],
      "name": "_0"
    },
    {
      "mesh": 0,
      "name": "Object_4"
    },
    {
      "mesh": 1,
      "name": "Object_5"
    }
  ],
  "samplers": [
    {
      "magFilter": 9729,
      "minFilter": 9729,
      "wrapS": 10497,
      "wrapT": 10497
    }
  ],
  "scene": 0,
  "scenes": [
    {
      "name": "Sketchfab_Scene",
      "nodes": [
        0
      ]
    }
  ],
  "textures": [
    {
      "sampler": 0,
      "source": 0
    }
  ]
}
